<svg viewBox="0 0 32 32" xmlns="http://www.w3.org/2000/svg"><path d="m5 0h23a4 4 0 0 1 4 4v24a4 4 0 0 1 -4 4h-24a4 4 0 0 1 -4-4v-23a5 5 0 0 1 5-5z" fill="#1da1f2"/><path d="m12.29 24.13a11.6 11.6 0 0 0 11.71-11.49v-.71a8.44 8.44 0 0 0 2-2.13 8.45 8.45 0 0 1 -2.36.65 4.12 4.12 0 0 0 1.81-2.27 8.21 8.21 0 0 1 -2.61 1 4.1 4.1 0 0 0 -7 3.74 11.67 11.67 0 0 1 -8.45-4.3 4.16 4.16 0 0 0 -.55 2.07 4.09 4.09 0 0 0 1.82 3.41 4 4 0 0 1 -1.85-.51v.06a4.1 4.1 0 0 0 3.29 4 3.77 3.77 0 0 1 -1.1.17 3.94 3.94 0 0 1 -.77-.08 4.09 4.09 0 0 0 3.83 2.85 8.15 8.15 0 0 1 -5.06 1.76 8.37 8.37 0 0 1 -1-.05 11.67 11.67 0 0 0 6.28 1.83" fill="#fff"/></svg>